# xmcd
#
# Track frame offsets:
#	150
#	10938
#	22295
#	33183
#	44206
#	54326
#	65551
#	77766
#	89168
#	96996
#	107399
#	117140
#	129362
#	143224
#	155303
#	166281
#	178150
#	190166
#	201503
#	211677
#	222999
#	233747
#	244731
#	255235
#	267157
#
# Disc length: 3756 seconds
#
# Revision: 0
# Processed by: cddbd v1.5.2PL0 Copyright (c) Steve Scherf et al.
# Submitted via: audiograbber 1.83.01
#
DISCID=620eaa19
DTITLE=Various Artist - Rock Your Socks Off Volume 2
DYEAR=1900
DGENRE=
TTITLE0=Billy Lymon - You're Last Chance
TTITLE1=Bobby Blues Bland - Love You Baby
TTITLE2=Jimmy Nolen - How FIne Can You Be
TTITLE3=Wynonie Harris - Git With The Gritz
TTITLE4=Albert Scott - Cant Let You Go
TTITLE5=Mercy Dee - Come Back Maybellene
TTITLE6=Boogaloo - Talk About A Party
TTITLE7=Young Jesse - Dont Happen No More
TTITLE8=Roonie Goode - Crazy Bait
TTITLE9=Juveniles - Beat In My Heart
TTITLE10=Mr PT - Aunt Susie
TTITLE11=Lionel Hampton - Boogie Woogie Santa Claus
TTITLE12=Cool Lester - Come Home With Me
TTITLE13=Wynonie Harris - Drinking Sherry Wine
TTITLE14=Nappy Brown - Open Up That Door
TTITLE15=Bullmoose Jackson - I Know Who Threw The Whiskey In The Well
TTITLE16=Billy Lamont - I Got A Rock And Roll Gal
TTITLE17=Bobbettes - Have Mercy Baby
TTITLE18=Esquerita - Oh Baby
TTITLE19=Amos Milburn - House Party
TTITLE20=Joe Liggins - Go Ahead
TTITLE21=Fay Simmons - Everybody's Doin The Pony
TTITLE22=Big Connie - Mumbles Blues
TTITLE23=Eddie Walker - Twistin The Night Away
TTITLE24=Clifton Chenier - Shake Rattle And Roll
EXTD=
EXTT0=
EXTT1=
EXTT2=
EXTT3=
EXTT4=
EXTT5=
EXTT6=
EXTT7=
EXTT8=
EXTT9=
EXTT10=
EXTT11=
EXTT12=
EXTT13=
EXTT14=
EXTT15=
EXTT16=
EXTT17=
EXTT18=
EXTT19=
EXTT20=
EXTT21=
EXTT22=
EXTT23=
EXTT24=
PLAYORDER=
